<svg width="1200" height="460" viewBox="0 0 1200 460" xmlns="http://www.w3.org/2000/svg">
<rect width="1200" height="460" fill="#0a2915"/>
<rect x="0" y="0" width="1200" height="7" fill="#c9a84c"/>
<rect x="0" y="453" width="1200" height="7" fill="#c9a84c"/>
<rect x="0" y="0" width="7" height="460" fill="#c9a84c"/>
<rect x="1193" y="0" width="7" height="460" fill="#c9a84c"/>
<circle cx="600" cy="230" r="200" fill="none" stroke="#c9a84c" stroke-width="0.8" opacity="0.2"/>
<circle cx="600" cy="230" r="160" fill="none" stroke="#c9a84c" stroke-width="0.5" opacity="0.15"/>
<circle cx="600" cy="230" r="240" fill="none" stroke="#c9a84c" stroke-width="0.3" opacity="0.1"/>
<g transform="translate(600,230)" opacity="0.1">
  <line x1="0" y1="-260" x2="0" y2="260" stroke="#c9a84c" stroke-width="0.8"/>
  <line x1="-260" y1="0" x2="260" y2="0" stroke="#c9a84c" stroke-width="0.8"/>
  <line x1="-184" y1="-184" x2="184" y2="184" stroke="#c9a84c" stroke-width="0.6"/>
  <line x1="184" y1="-184" x2="-184" y2="184" stroke="#c9a84c" stroke-width="0.6"/>
</g>
<g transform="translate(600,230)" opacity="0.15">
  <polygon points="0,-160 92,-114 148,-23 148,23 92,114 0,160 -92,114 -148,23 -148,-23 -92,-114" fill="none" stroke="#c9a84c" stroke-width="1"/>
</g>
<text x="600" y="100" text-anchor="middle" font-family="Georgia, serif" font-size="28" fill="#c9a84c" opacity="0.85">&#xFE71; &#x627;&#x642;&#x652;&#x631;&#x614;&#x623;&#x652; &#x628;&#x650;&#x627;&#x633;&#x652;&#x645;&#x650; &#x631;&#x614;&#x628;&#x651;&#x650;&#x643;&#x614; &#x627;&#x644;&#x651;&#x614;&#x630;&#x650;&#x64A; &#x62E;&#x614;&#x644;&#x614;&#x642;&#x614; &#xFE72;</text>
<text x="600" y="165" text-anchor="middle" font-family="Georgia, serif" font-size="58" fill="#f0c060" font-weight="bold">&#x646;&#x648;&#x631;&#x650; &#x634;&#x628;&#x651;&#x650;&#x64A;&#x652;&#x631;</text>
<text x="600" y="240" text-anchor="middle" font-family="Arial Black, sans-serif" font-size="52" fill="#ffffff" font-weight="900" letter-spacing="2">Noor-e-Shabbir</text>
<text x="600" y="278" text-anchor="middle" font-family="Arial, sans-serif" font-size="20" fill="#c9a84c" letter-spacing="8" font-weight="bold">ONLINE QURAN ACADEMY</text>
<line x1="350" y1="296" x2="530" y2="296" stroke="#c9a84c" stroke-width="1" opacity="0.6"/>
<circle cx="600" cy="296" r="5" fill="#c9a84c" opacity="0.8"/>
<line x1="670" y1="296" x2="850" y2="296" stroke="#c9a84c" stroke-width="1" opacity="0.6"/>
<text x="600" y="330" text-anchor="middle" font-family="Arial, sans-serif" font-size="16" fill="rgba(255,255,255,0.7)" letter-spacing="3">Hifz  ·  Nazra  ·  Tajweed  ·  Tafseer  ·  Islamic Studies</text>
<text x="600" y="365" text-anchor="middle" font-family="Arial, sans-serif" font-size="15" fill="#c9a84c" opacity="0.9" letter-spacing="2">UK · USA · Canada · Europe · Australia · Pakistan</text>
<rect x="420" y="385" width="360" height="48" rx="24" fill="none" stroke="#c9a84c" stroke-width="1.5" opacity="0.5"/>
<text x="600" y="402" text-anchor="middle" font-family="Arial, sans-serif" font-size="12" fill="#c9a84c" opacity="0.8" letter-spacing="1">FREE TRIAL CLASS</text>
<text x="600" y="422" text-anchor="middle" font-family="Arial, sans-serif" font-size="13" fill="#ffffff" opacity="0.9">WhatsApp: +49 159 0617 1828  ·  +92 341 5915690</text>
</svg>